<mxfile host="app.diagrams.net" modified="2022-04-10T14:41:35.002Z" agent="5.0 (Windows NT 10.0; Win64; x64) AppleWebKit/537.36 (KHTML, like Gecko) Chrome/99.0.4844.74 Safari/537.36" etag="Xm6OF5k5FzzaAaYz_5bS" version="16.5.2" type="github">
  <diagram id="AKhQNKMOVLfTBlIXiXV_" name="Page-1">
    <mxGraphModel dx="1422" dy="1871" grid="1" gridSize="10" guides="1" tooltips="1" connect="1" arrows="1" fold="1" page="1" pageScale="1" pageWidth="850" pageHeight="1100" math="0" shadow="0">
      <root>
        <mxCell id="0" />
        <mxCell id="1" parent="0" />
        <mxCell id="GBLREJQ-x-W-1ReMdiNV-7" value="Starter accu&lt;br&gt;x Ah" style="rounded=1;whiteSpace=wrap;html=1;" parent="1" vertex="1">
          <mxGeometry y="450" width="120" height="60" as="geometry" />
        </mxCell>
        <mxCell id="GBLREJQ-x-W-1ReMdiNV-9" value="&lt;span style=&quot;color: rgb(36 , 36 , 36) ; font-family: &amp;#34;google sans&amp;#34; , sans-serif ; letter-spacing: 0.5px ; background-color: rgb(255 , 255 , 255)&quot;&gt;&lt;font style=&quot;font-size: 14px&quot;&gt;Victron Cyrix-ct 12/24V-120A&lt;/font&gt;&lt;/span&gt;" style="rounded=1;whiteSpace=wrap;html=1;" parent="1" vertex="1">
          <mxGeometry x="120" y="380" width="120" height="60" as="geometry" />
        </mxCell>
        <mxCell id="GBLREJQ-x-W-1ReMdiNV-10" value="100Ah Beaut accu" style="rounded=1;whiteSpace=wrap;html=1;fontSize=14;" parent="1" vertex="1">
          <mxGeometry x="280" y="450" width="120" height="60" as="geometry" />
        </mxCell>
        <mxCell id="aOWdTS7RIFluIR1UwhIq-1" value="100Ah Beaut accu" style="rounded=1;whiteSpace=wrap;html=1;fontSize=14;" parent="1" vertex="1">
          <mxGeometry x="460" y="450" width="120" height="60" as="geometry" />
        </mxCell>
        <mxCell id="aOWdTS7RIFluIR1UwhIq-3" value="Victron Smartshunt 500A" style="rounded=1;whiteSpace=wrap;html=1;fontFamily=Helvetica;fontSize=12;" parent="1" vertex="1">
          <mxGeometry x="510" y="350" width="80" height="50" as="geometry" />
        </mxCell>
        <mxCell id="aOWdTS7RIFluIR1UwhIq-4" value="Victon ON/OFF switch 275A" style="rounded=1;whiteSpace=wrap;html=1;fontFamily=Helvetica;fontSize=10;" parent="1" vertex="1">
          <mxGeometry x="390" y="280" width="60" height="60" as="geometry" />
        </mxCell>
        <mxCell id="aOWdTS7RIFluIR1UwhIq-5" value="Victron Blue smart charger 12/15" style="rounded=1;whiteSpace=wrap;html=1;fontFamily=Helvetica;fontSize=12;" parent="1" vertex="1">
          <mxGeometry x="280" y="80" width="120" height="60" as="geometry" />
        </mxCell>
        <mxCell id="aOWdTS7RIFluIR1UwhIq-6" value="Victron Phoenix 12/375 Omvormer" style="rounded=1;whiteSpace=wrap;html=1;fontFamily=Helvetica;fontSize=12;" parent="1" vertex="1">
          <mxGeometry x="425" y="80" width="120" height="60" as="geometry" />
        </mxCell>
        <mxCell id="aOWdTS7RIFluIR1UwhIq-7" value="" style="endArrow=none;html=1;rounded=0;fontFamily=Helvetica;fontSize=12;exitX=0.25;exitY=0;exitDx=0;exitDy=0;entryX=0;entryY=0.5;entryDx=0;entryDy=0;fillColor=#f8cecc;strokeColor=#b85450;strokeWidth=4;" parent="1" source="GBLREJQ-x-W-1ReMdiNV-7" target="GBLREJQ-x-W-1ReMdiNV-9" edge="1">
          <mxGeometry width="50" height="50" relative="1" as="geometry">
            <mxPoint x="500" y="480" as="sourcePoint" />
            <mxPoint x="550" y="430" as="targetPoint" />
            <Array as="points">
              <mxPoint x="80" y="410" />
            </Array>
          </mxGeometry>
        </mxCell>
        <mxCell id="aOWdTS7RIFluIR1UwhIq-20" value="35mm2" style="edgeLabel;html=1;align=center;verticalAlign=middle;resizable=0;points=[];fontSize=8;fontFamily=Helvetica;" parent="aOWdTS7RIFluIR1UwhIq-7" vertex="1" connectable="0">
          <mxGeometry x="0.4327" y="-2" relative="1" as="geometry">
            <mxPoint as="offset" />
          </mxGeometry>
        </mxCell>
        <mxCell id="aOWdTS7RIFluIR1UwhIq-8" value="" style="endArrow=none;html=1;rounded=0;fontFamily=Helvetica;fontSize=12;exitX=0.25;exitY=0;exitDx=0;exitDy=0;entryX=1;entryY=0.5;entryDx=0;entryDy=0;fillColor=#f8cecc;strokeColor=#b85450;strokeWidth=4;" parent="1" source="GBLREJQ-x-W-1ReMdiNV-10" target="GBLREJQ-x-W-1ReMdiNV-9" edge="1">
          <mxGeometry width="50" height="50" relative="1" as="geometry">
            <mxPoint x="120" y="460" as="sourcePoint" />
            <mxPoint x="290" y="360" as="targetPoint" />
            <Array as="points">
              <mxPoint x="270" y="410" />
            </Array>
          </mxGeometry>
        </mxCell>
        <mxCell id="aOWdTS7RIFluIR1UwhIq-19" value="35mm2" style="edgeLabel;html=1;align=center;verticalAlign=middle;resizable=0;points=[];fontSize=8;fontFamily=Helvetica;" parent="aOWdTS7RIFluIR1UwhIq-8" vertex="1" connectable="0">
          <mxGeometry x="-0.4713" y="-1" relative="1" as="geometry">
            <mxPoint x="-30" y="-23" as="offset" />
          </mxGeometry>
        </mxCell>
        <mxCell id="aOWdTS7RIFluIR1UwhIq-9" value="" style="endArrow=none;html=1;rounded=0;fontFamily=Helvetica;fontSize=12;entryX=0.25;entryY=0;entryDx=0;entryDy=0;fillColor=#f8cecc;strokeColor=#b85450;strokeWidth=4;" parent="1" target="aOWdTS7RIFluIR1UwhIq-1" edge="1">
          <mxGeometry width="50" height="50" relative="1" as="geometry">
            <mxPoint x="310" y="450" as="sourcePoint" />
            <mxPoint x="380" y="390" as="targetPoint" />
            <Array as="points">
              <mxPoint x="350" y="420" />
              <mxPoint x="460" y="420" />
            </Array>
          </mxGeometry>
        </mxCell>
        <mxCell id="aOWdTS7RIFluIR1UwhIq-18" value="35mm2" style="edgeLabel;html=1;align=center;verticalAlign=middle;resizable=0;points=[];fontSize=8;fontFamily=Helvetica;" parent="aOWdTS7RIFluIR1UwhIq-9" vertex="1" connectable="0">
          <mxGeometry x="-0.1527" y="5" relative="1" as="geometry">
            <mxPoint as="offset" />
          </mxGeometry>
        </mxCell>
        <mxCell id="aOWdTS7RIFluIR1UwhIq-10" value="" style="endArrow=none;html=1;rounded=0;fontFamily=Helvetica;fontSize=12;entryX=0.75;entryY=0;entryDx=0;entryDy=0;fillColor=#f8cecc;strokeColor=#0F0707;strokeWidth=4;exitX=0.75;exitY=0;exitDx=0;exitDy=0;" parent="1" source="GBLREJQ-x-W-1ReMdiNV-10" target="aOWdTS7RIFluIR1UwhIq-1" edge="1">
          <mxGeometry width="50" height="50" relative="1" as="geometry">
            <mxPoint x="360" y="450" as="sourcePoint" />
            <mxPoint x="540" y="450" as="targetPoint" />
            <Array as="points">
              <mxPoint x="410" y="430" />
              <mxPoint x="510" y="430" />
            </Array>
          </mxGeometry>
        </mxCell>
        <mxCell id="aOWdTS7RIFluIR1UwhIq-11" value="" style="endArrow=none;html=1;rounded=0;fontFamily=Helvetica;fontSize=12;entryX=0.75;entryY=0;entryDx=0;entryDy=0;fillColor=#f8cecc;strokeColor=#0F0707;strokeWidth=4;exitX=0.5;exitY=1;exitDx=0;exitDy=0;" parent="1" source="aOWdTS7RIFluIR1UwhIq-3" target="aOWdTS7RIFluIR1UwhIq-1" edge="1">
          <mxGeometry width="50" height="50" relative="1" as="geometry">
            <mxPoint x="380" y="460" as="sourcePoint" />
            <mxPoint x="560" y="460" as="targetPoint" />
            <Array as="points" />
          </mxGeometry>
        </mxCell>
        <mxCell id="aOWdTS7RIFluIR1UwhIq-12" value="" style="endArrow=none;html=1;rounded=0;fontFamily=Helvetica;fontSize=12;fillColor=#f8cecc;strokeColor=#b85450;strokeWidth=4;exitX=0.25;exitY=0;exitDx=0;exitDy=0;entryX=0;entryY=0.5;entryDx=0;entryDy=0;" parent="1" source="GBLREJQ-x-W-1ReMdiNV-10" target="aOWdTS7RIFluIR1UwhIq-4" edge="1">
          <mxGeometry width="50" height="50" relative="1" as="geometry">
            <mxPoint x="300" y="370" as="sourcePoint" />
            <mxPoint x="390" y="316" as="targetPoint" />
            <Array as="points">
              <mxPoint x="310" y="310" />
            </Array>
          </mxGeometry>
        </mxCell>
        <mxCell id="aOWdTS7RIFluIR1UwhIq-24" value="25mm2" style="edgeLabel;html=1;align=center;verticalAlign=middle;resizable=0;points=[];fontSize=8;fontFamily=Helvetica;" parent="aOWdTS7RIFluIR1UwhIq-12" vertex="1" connectable="0">
          <mxGeometry x="0.0482" relative="1" as="geometry">
            <mxPoint y="9" as="offset" />
          </mxGeometry>
        </mxCell>
        <mxCell id="aOWdTS7RIFluIR1UwhIq-13" value="80A" style="rounded=0;whiteSpace=wrap;html=1;fontFamily=Helvetica;fontSize=12;" parent="1" vertex="1">
          <mxGeometry x="310" y="380" width="30" height="20" as="geometry" />
        </mxCell>
        <mxCell id="aOWdTS7RIFluIR1UwhIq-15" value="120A" style="rounded=0;whiteSpace=wrap;html=1;fontFamily=Helvetica;fontSize=12;" parent="1" vertex="1">
          <mxGeometry x="25" y="400" width="30" height="20" as="geometry" />
        </mxCell>
        <mxCell id="aOWdTS7RIFluIR1UwhIq-17" value="120A" style="rounded=0;whiteSpace=wrap;html=1;fontFamily=Helvetica;fontSize=12;" parent="1" vertex="1">
          <mxGeometry x="250" y="420" width="30" height="20" as="geometry" />
        </mxCell>
        <mxCell id="aOWdTS7RIFluIR1UwhIq-21" value="" style="endArrow=none;html=1;rounded=0;fontFamily=Helvetica;fontSize=5;strokeColor=#b85450;strokeWidth=2;entryX=0.25;entryY=1;entryDx=0;entryDy=0;fillColor=#f8cecc;" parent="1" target="aOWdTS7RIFluIR1UwhIq-5" edge="1">
          <mxGeometry width="50" height="50" relative="1" as="geometry">
            <mxPoint x="310" y="310" as="sourcePoint" />
            <mxPoint x="520" y="220" as="targetPoint" />
          </mxGeometry>
        </mxCell>
        <mxCell id="aOWdTS7RIFluIR1UwhIq-22" value="10mm2" style="edgeLabel;html=1;align=center;verticalAlign=middle;resizable=0;points=[];fontSize=8;fontFamily=Helvetica;" parent="aOWdTS7RIFluIR1UwhIq-21" vertex="1" connectable="0">
          <mxGeometry x="0.127" y="1" relative="1" as="geometry">
            <mxPoint as="offset" />
          </mxGeometry>
        </mxCell>
        <mxCell id="aOWdTS7RIFluIR1UwhIq-23" value="15A" style="rounded=0;whiteSpace=wrap;html=1;fontFamily=Helvetica;fontSize=12;" parent="1" vertex="1">
          <mxGeometry x="310" y="260" width="30" height="20" as="geometry" />
        </mxCell>
        <mxCell id="aOWdTS7RIFluIR1UwhIq-25" value="" style="endArrow=none;html=1;rounded=0;fontFamily=Helvetica;fontSize=12;fillColor=#f8cecc;strokeColor=#b85450;strokeWidth=1;exitX=0;exitY=0.5;exitDx=0;exitDy=0;" parent="1" source="aOWdTS7RIFluIR1UwhIq-3" edge="1">
          <mxGeometry width="50" height="50" relative="1" as="geometry">
            <mxPoint x="480" y="400" as="sourcePoint" />
            <mxPoint x="310" y="450" as="targetPoint" />
            <Array as="points">
              <mxPoint x="370" y="390" />
            </Array>
          </mxGeometry>
        </mxCell>
        <mxCell id="aOWdTS7RIFluIR1UwhIq-26" value="1,5mm2" style="edgeLabel;html=1;align=center;verticalAlign=middle;resizable=0;points=[];fontSize=8;fontFamily=Helvetica;" parent="aOWdTS7RIFluIR1UwhIq-25" vertex="1" connectable="0">
          <mxGeometry x="-0.1527" y="5" relative="1" as="geometry">
            <mxPoint x="-25" as="offset" />
          </mxGeometry>
        </mxCell>
        <mxCell id="aOWdTS7RIFluIR1UwhIq-27" value="" style="endArrow=none;html=1;rounded=0;fontFamily=Helvetica;fontSize=12;fillColor=#f8cecc;strokeColor=#b85450;strokeWidth=4;entryX=0.5;entryY=0;entryDx=0;entryDy=0;" parent="1" target="aOWdTS7RIFluIR1UwhIq-4" edge="1">
          <mxGeometry width="50" height="50" relative="1" as="geometry">
            <mxPoint x="420" y="220" as="sourcePoint" />
            <mxPoint x="431.98" y="306.1" as="targetPoint" />
            <Array as="points" />
          </mxGeometry>
        </mxCell>
        <mxCell id="aOWdTS7RIFluIR1UwhIq-28" value="25mm2" style="edgeLabel;html=1;align=center;verticalAlign=middle;resizable=0;points=[];fontSize=8;fontFamily=Helvetica;" parent="aOWdTS7RIFluIR1UwhIq-27" vertex="1" connectable="0">
          <mxGeometry x="0.0482" relative="1" as="geometry">
            <mxPoint as="offset" />
          </mxGeometry>
        </mxCell>
        <mxCell id="aOWdTS7RIFluIR1UwhIq-29" value="" style="endArrow=none;html=1;rounded=0;fontFamily=Helvetica;fontSize=12;fillColor=#f8cecc;strokeColor=#b85450;strokeWidth=4;" parent="1" edge="1">
          <mxGeometry width="50" height="50" relative="1" as="geometry">
            <mxPoint x="840" y="220" as="sourcePoint" />
            <mxPoint x="400" y="220" as="targetPoint" />
            <Array as="points" />
          </mxGeometry>
        </mxCell>
        <mxCell id="aOWdTS7RIFluIR1UwhIq-31" value="" style="endArrow=none;html=1;rounded=0;fontFamily=Helvetica;fontSize=12;fillColor=#f8cecc;strokeColor=#0F0707;strokeWidth=4;" parent="1" edge="1">
          <mxGeometry width="50" height="50" relative="1" as="geometry">
            <mxPoint x="840.0000000000005" y="240" as="sourcePoint" />
            <mxPoint x="400" y="240" as="targetPoint" />
            <Array as="points" />
          </mxGeometry>
        </mxCell>
        <mxCell id="aOWdTS7RIFluIR1UwhIq-32" value="" style="endArrow=none;html=1;rounded=0;fontFamily=Helvetica;fontSize=5;strokeColor=#b85450;strokeWidth=2;fillColor=#f8cecc;" parent="1" edge="1">
          <mxGeometry width="50" height="50" relative="1" as="geometry">
            <mxPoint x="460" y="220" as="sourcePoint" />
            <mxPoint x="460" y="140" as="targetPoint" />
          </mxGeometry>
        </mxCell>
        <mxCell id="aOWdTS7RIFluIR1UwhIq-33" value="10mm2" style="edgeLabel;html=1;align=center;verticalAlign=middle;resizable=0;points=[];fontSize=8;fontFamily=Helvetica;" parent="aOWdTS7RIFluIR1UwhIq-32" vertex="1" connectable="0">
          <mxGeometry x="0.127" y="1" relative="1" as="geometry">
            <mxPoint as="offset" />
          </mxGeometry>
        </mxCell>
        <mxCell id="aOWdTS7RIFluIR1UwhIq-34" value="" style="endArrow=none;html=1;rounded=0;fontFamily=Helvetica;fontSize=5;strokeColor=#0F0707;strokeWidth=2;fillColor=#f8cecc;entryX=0.75;entryY=1;entryDx=0;entryDy=0;" parent="1" target="aOWdTS7RIFluIR1UwhIq-6" edge="1">
          <mxGeometry width="50" height="50" relative="1" as="geometry">
            <mxPoint x="515" y="240" as="sourcePoint" />
            <mxPoint x="470" y="150" as="targetPoint" />
          </mxGeometry>
        </mxCell>
        <mxCell id="aOWdTS7RIFluIR1UwhIq-35" value="10mm2" style="edgeLabel;html=1;align=center;verticalAlign=middle;resizable=0;points=[];fontSize=8;fontFamily=Helvetica;" parent="aOWdTS7RIFluIR1UwhIq-34" vertex="1" connectable="0">
          <mxGeometry x="0.127" y="1" relative="1" as="geometry">
            <mxPoint as="offset" />
          </mxGeometry>
        </mxCell>
        <mxCell id="n5P5nD674G19Qfx5sYHf-2" value="?" style="text;html=1;strokeColor=none;fillColor=none;align=center;verticalAlign=middle;whiteSpace=wrap;rounded=0;" parent="1" vertex="1">
          <mxGeometry x="50" y="400" width="20" height="20" as="geometry" />
        </mxCell>
        <mxCell id="n5P5nD674G19Qfx5sYHf-3" value="35mm2" style="edgeLabel;html=1;align=center;verticalAlign=middle;resizable=0;points=[];fontSize=8;fontFamily=Helvetica;" parent="1" vertex="1" connectable="0">
          <mxGeometry x="440.00468085106377" y="430" as="geometry" />
        </mxCell>
        <mxCell id="n5P5nD674G19Qfx5sYHf-4" value="35mm2" style="edgeLabel;html=1;align=center;verticalAlign=middle;resizable=0;points=[];fontSize=8;fontFamily=Helvetica;" parent="1" vertex="1" connectable="0">
          <mxGeometry x="550.0046808510638" y="420" as="geometry">
            <mxPoint x="-6" y="-14" as="offset" />
          </mxGeometry>
        </mxCell>
        <mxCell id="n5P5nD674G19Qfx5sYHf-5" value="" style="endArrow=none;html=1;rounded=0;fontFamily=Helvetica;fontSize=12;entryX=0.75;entryY=0;entryDx=0;entryDy=0;fillColor=#f8cecc;strokeColor=#0F0707;strokeWidth=4;" parent="1" edge="1">
          <mxGeometry width="50" height="50" relative="1" as="geometry">
            <mxPoint x="550" y="240" as="sourcePoint" />
            <mxPoint x="549.83" y="350" as="targetPoint" />
            <Array as="points" />
          </mxGeometry>
        </mxCell>
        <mxCell id="n5P5nD674G19Qfx5sYHf-6" value="35mm2" style="edgeLabel;html=1;align=center;verticalAlign=middle;resizable=0;points=[];fontSize=8;fontFamily=Helvetica;" parent="1" vertex="1" connectable="0">
          <mxGeometry x="550.0046808510638" y="290" as="geometry">
            <mxPoint x="-6" y="-14" as="offset" />
          </mxGeometry>
        </mxCell>
        <mxCell id="n5P5nD674G19Qfx5sYHf-7" value="" style="endArrow=none;html=1;rounded=0;fontFamily=Helvetica;fontSize=12;fillColor=#f8cecc;strokeColor=#0F0707;strokeWidth=4;" parent="1" edge="1">
          <mxGeometry width="50" height="50" relative="1" as="geometry">
            <mxPoint x="650.17" y="240" as="sourcePoint" />
            <mxPoint x="650" y="280" as="targetPoint" />
            <Array as="points" />
          </mxGeometry>
        </mxCell>
        <mxCell id="n5P5nD674G19Qfx5sYHf-8" value="" style="endArrow=none;html=1;rounded=0;fontFamily=Helvetica;fontSize=12;fillColor=#f8cecc;strokeColor=#0F0707;strokeWidth=4;" parent="1" edge="1">
          <mxGeometry width="50" height="50" relative="1" as="geometry">
            <mxPoint x="670" y="280" as="sourcePoint" />
            <mxPoint x="630" y="280" as="targetPoint" />
            <Array as="points" />
          </mxGeometry>
        </mxCell>
        <mxCell id="n5P5nD674G19Qfx5sYHf-11" value="" style="endArrow=none;html=1;rounded=0;fontFamily=Helvetica;fontSize=12;fillColor=#f8cecc;strokeColor=#0F0707;strokeWidth=4;" parent="1" edge="1">
          <mxGeometry width="50" height="50" relative="1" as="geometry">
            <mxPoint x="660" y="290" as="sourcePoint" />
            <mxPoint x="640" y="290" as="targetPoint" />
            <Array as="points" />
          </mxGeometry>
        </mxCell>
        <mxCell id="n5P5nD674G19Qfx5sYHf-12" value="Zekeringdoos" style="rounded=1;whiteSpace=wrap;html=1;" parent="1" vertex="1">
          <mxGeometry x="590" y="80" width="120" height="60" as="geometry" />
        </mxCell>
        <mxCell id="n5P5nD674G19Qfx5sYHf-13" value="" style="endArrow=none;html=1;rounded=0;fontFamily=Helvetica;fontSize=5;strokeColor=#b85450;strokeWidth=2;fillColor=#f8cecc;" parent="1" edge="1">
          <mxGeometry width="50" height="50" relative="1" as="geometry">
            <mxPoint x="620" y="220" as="sourcePoint" />
            <mxPoint x="620" y="140" as="targetPoint" />
          </mxGeometry>
        </mxCell>
        <mxCell id="n5P5nD674G19Qfx5sYHf-14" value="10mm2" style="edgeLabel;html=1;align=center;verticalAlign=middle;resizable=0;points=[];fontSize=8;fontFamily=Helvetica;" parent="n5P5nD674G19Qfx5sYHf-13" vertex="1" connectable="0">
          <mxGeometry x="0.127" y="1" relative="1" as="geometry">
            <mxPoint as="offset" />
          </mxGeometry>
        </mxCell>
        <mxCell id="n5P5nD674G19Qfx5sYHf-15" value="40A" style="rounded=0;whiteSpace=wrap;html=1;fontFamily=Helvetica;fontSize=12;" parent="1" vertex="1">
          <mxGeometry x="600" y="190" width="30" height="20" as="geometry" />
        </mxCell>
        <mxCell id="n5P5nD674G19Qfx5sYHf-19" value="" style="endArrow=none;html=1;rounded=0;fontFamily=Helvetica;fontSize=5;strokeColor=#0F0707;strokeWidth=2;fillColor=#f8cecc;entryX=0.75;entryY=1;entryDx=0;entryDy=0;" parent="1" edge="1">
          <mxGeometry width="50" height="50" relative="1" as="geometry">
            <mxPoint x="680.0000000000001" y="239.99999999999994" as="sourcePoint" />
            <mxPoint x="680.0000000000001" y="140" as="targetPoint" />
          </mxGeometry>
        </mxCell>
        <mxCell id="n5P5nD674G19Qfx5sYHf-20" value="10mm2" style="edgeLabel;html=1;align=center;verticalAlign=middle;resizable=0;points=[];fontSize=8;fontFamily=Helvetica;" parent="n5P5nD674G19Qfx5sYHf-19" vertex="1" connectable="0">
          <mxGeometry x="0.127" y="1" relative="1" as="geometry">
            <mxPoint as="offset" />
          </mxGeometry>
        </mxCell>
        <mxCell id="n5P5nD674G19Qfx5sYHf-21" value="20A" style="rounded=0;whiteSpace=wrap;html=1;fontFamily=Helvetica;fontSize=12;" parent="1" vertex="1">
          <mxGeometry x="450" y="190" width="30" height="20" as="geometry" />
        </mxCell>
        <mxCell id="n5P5nD674G19Qfx5sYHf-24" value="?" style="text;html=1;strokeColor=none;fillColor=none;align=center;verticalAlign=middle;whiteSpace=wrap;rounded=0;" parent="1" vertex="1">
          <mxGeometry x="475" y="190" width="20" height="20" as="geometry" />
        </mxCell>
        <mxCell id="n5P5nD674G19Qfx5sYHf-25" value="?" style="text;html=1;strokeColor=none;fillColor=none;align=center;verticalAlign=middle;whiteSpace=wrap;rounded=0;" parent="1" vertex="1">
          <mxGeometry x="630" y="190" width="20" height="20" as="geometry" />
        </mxCell>
        <mxCell id="n5P5nD674G19Qfx5sYHf-30" value="12V aansluitingen" style="swimlane;" parent="1" vertex="1">
          <mxGeometry x="510" y="-130" width="280" height="110" as="geometry" />
        </mxCell>
        <mxCell id="n5P5nD674G19Qfx5sYHf-31" value="" style="endArrow=none;html=1;rounded=0;fontFamily=Helvetica;fontSize=5;strokeColor=#b85450;strokeWidth=2;fillColor=#f8cecc;" parent="1" edge="1">
          <mxGeometry width="50" height="50" relative="1" as="geometry">
            <mxPoint x="620" y="80" as="sourcePoint" />
            <mxPoint x="620" y="-20" as="targetPoint" />
          </mxGeometry>
        </mxCell>
        <mxCell id="n5P5nD674G19Qfx5sYHf-32" value="2.5mm2" style="edgeLabel;html=1;align=center;verticalAlign=middle;resizable=0;points=[];fontSize=8;fontFamily=Helvetica;" parent="n5P5nD674G19Qfx5sYHf-31" vertex="1" connectable="0">
          <mxGeometry x="0.127" y="1" relative="1" as="geometry">
            <mxPoint as="offset" />
          </mxGeometry>
        </mxCell>
        <mxCell id="n5P5nD674G19Qfx5sYHf-33" value="" style="endArrow=none;html=1;rounded=0;fontFamily=Helvetica;fontSize=5;strokeColor=#0F0707;strokeWidth=2;fillColor=#f8cecc;entryX=0.75;entryY=1;entryDx=0;entryDy=0;" parent="1" edge="1">
          <mxGeometry width="50" height="50" relative="1" as="geometry">
            <mxPoint x="680" y="80" as="sourcePoint" />
            <mxPoint x="680" y="-20" as="targetPoint" />
          </mxGeometry>
        </mxCell>
        <mxCell id="n5P5nD674G19Qfx5sYHf-34" value="2.5mm2" style="edgeLabel;html=1;align=center;verticalAlign=middle;resizable=0;points=[];fontSize=8;fontFamily=Helvetica;" parent="n5P5nD674G19Qfx5sYHf-33" vertex="1" connectable="0">
          <mxGeometry x="0.127" y="1" relative="1" as="geometry">
            <mxPoint x="1" as="offset" />
          </mxGeometry>
        </mxCell>
        <mxCell id="n5P5nD674G19Qfx5sYHf-35" value="1.1m" style="text;html=1;strokeColor=none;fillColor=none;align=center;verticalAlign=middle;whiteSpace=wrap;rounded=0;fontSize=8;" parent="1" vertex="1">
          <mxGeometry x="400" y="402.5" width="25" height="15" as="geometry" />
        </mxCell>
        <mxCell id="8n_FvsMHJOkO5RUDTEl0-1" value="1.1m" style="text;html=1;strokeColor=none;fillColor=none;align=center;verticalAlign=middle;whiteSpace=wrap;rounded=0;fontSize=8;" parent="1" vertex="1">
          <mxGeometry x="475" y="412.5" width="25" height="15" as="geometry" />
        </mxCell>
        <mxCell id="3ZesS7n-96SI2nkyZvq3-2" value="" style="shape=image;html=1;verticalAlign=top;verticalLabelPosition=bottom;labelBackgroundColor=#ffffff;imageAspect=0;aspect=fixed;image=https://cdn3.iconfinder.com/data/icons/energy-and-power-glyph-24-px/24/Electrical_plug_plug_plug_connector_plug_in_power_plug_2-128.png" vertex="1" parent="1">
          <mxGeometry x="11" y="90" width="58" height="58" as="geometry" />
        </mxCell>
        <mxCell id="3ZesS7n-96SI2nkyZvq3-3" value="" style="endArrow=none;html=1;rounded=0;fillColor=#0050ef;strokeColor=#001DBC;entryX=0.623;entryY=-0.01;entryDx=0;entryDy=0;entryPerimeter=0;" edge="1" parent="1" target="3ZesS7n-96SI2nkyZvq3-8">
          <mxGeometry width="50" height="50" relative="1" as="geometry">
            <mxPoint x="69" y="118.83" as="sourcePoint" />
            <mxPoint x="190" y="118.88" as="targetPoint" />
            <Array as="points">
              <mxPoint x="202" y="119" />
            </Array>
          </mxGeometry>
        </mxCell>
        <mxCell id="3ZesS7n-96SI2nkyZvq3-4" value="" style="endArrow=none;html=1;rounded=0;exitX=1;exitY=0.5;exitDx=0;exitDy=0;fillColor=#e51400;strokeColor=#B20000;" edge="1" parent="1">
          <mxGeometry width="50" height="50" relative="1" as="geometry">
            <mxPoint x="69.00000000000011" y="129" as="sourcePoint" />
            <mxPoint x="180" y="129" as="targetPoint" />
          </mxGeometry>
        </mxCell>
        <mxCell id="3ZesS7n-96SI2nkyZvq3-5" value="" style="endArrow=none;html=1;rounded=0;exitX=1;exitY=0.5;exitDx=0;exitDy=0;fillColor=#e51400;strokeColor=#B20000;entryX=0.5;entryY=0;entryDx=0;entryDy=0;" edge="1" parent="1" target="3ZesS7n-96SI2nkyZvq3-8">
          <mxGeometry width="50" height="50" relative="1" as="geometry">
            <mxPoint x="70.00000000000011" y="129" as="sourcePoint" />
            <mxPoint x="190" y="129" as="targetPoint" />
            <Array as="points">
              <mxPoint x="190" y="129" />
            </Array>
          </mxGeometry>
        </mxCell>
        <mxCell id="3ZesS7n-96SI2nkyZvq3-6" value="" style="endArrow=none;html=1;rounded=0;fillColor=#e3c800;strokeColor=#B09500;entryX=0.25;entryY=0;entryDx=0;entryDy=0;" edge="1" parent="1" target="3ZesS7n-96SI2nkyZvq3-7">
          <mxGeometry width="50" height="50" relative="1" as="geometry">
            <mxPoint x="70" y="139.91000000000005" as="sourcePoint" />
            <mxPoint x="191" y="139.96" as="targetPoint" />
            <Array as="points">
              <mxPoint x="120" y="140" />
              <mxPoint x="120" y="200" />
            </Array>
          </mxGeometry>
        </mxCell>
        <mxCell id="3ZesS7n-96SI2nkyZvq3-7" value="" style="shape=image;html=1;verticalAlign=top;verticalLabelPosition=bottom;labelBackgroundColor=#ffffff;imageAspect=0;aspect=fixed;image=https://cdn1.iconfinder.com/data/icons/bootstrap-vol-3/16/outlet-128.png" vertex="1" parent="1">
          <mxGeometry x="110" y="220" width="40" height="40" as="geometry" />
        </mxCell>
        <mxCell id="3ZesS7n-96SI2nkyZvq3-8" value="Aardlekautomaat" style="rounded=1;whiteSpace=wrap;html=1;" vertex="1" parent="1">
          <mxGeometry x="140" y="148" width="100" height="32" as="geometry" />
        </mxCell>
        <mxCell id="3ZesS7n-96SI2nkyZvq3-9" value="" style="endArrow=none;html=1;rounded=0;exitX=0.5;exitY=0;exitDx=0;exitDy=0;fillColor=#e51400;strokeColor=#B20000;entryX=0.447;entryY=0.969;entryDx=0;entryDy=0;entryPerimeter=0;" edge="1" parent="1" source="3ZesS7n-96SI2nkyZvq3-7" target="3ZesS7n-96SI2nkyZvq3-8">
          <mxGeometry width="50" height="50" relative="1" as="geometry">
            <mxPoint x="80.00000000000011" y="139" as="sourcePoint" />
            <mxPoint x="200" y="158" as="targetPoint" />
            <Array as="points">
              <mxPoint x="130" y="200" />
              <mxPoint x="185" y="200" />
            </Array>
          </mxGeometry>
        </mxCell>
        <mxCell id="3ZesS7n-96SI2nkyZvq3-10" value="" style="endArrow=none;html=1;rounded=0;fillColor=#0050ef;strokeColor=#001DBC;entryX=0.75;entryY=0;entryDx=0;entryDy=0;exitX=0.597;exitY=1.01;exitDx=0;exitDy=0;exitPerimeter=0;" edge="1" parent="1" source="3ZesS7n-96SI2nkyZvq3-8" target="3ZesS7n-96SI2nkyZvq3-7">
          <mxGeometry width="50" height="50" relative="1" as="geometry">
            <mxPoint x="79" y="128.82999999999993" as="sourcePoint" />
            <mxPoint x="212.30000000000007" y="157.68000000000006" as="targetPoint" />
            <Array as="points">
              <mxPoint x="200" y="210" />
              <mxPoint x="140" y="210" />
            </Array>
          </mxGeometry>
        </mxCell>
        <mxCell id="3ZesS7n-96SI2nkyZvq3-13" value="" style="endArrow=none;html=1;rounded=0;strokeWidth=5;entryX=0;entryY=0.5;entryDx=0;entryDy=0;" edge="1" parent="1" target="aOWdTS7RIFluIR1UwhIq-5">
          <mxGeometry width="50" height="50" relative="1" as="geometry">
            <mxPoint x="200" y="240" as="sourcePoint" />
            <mxPoint x="280" y="180" as="targetPoint" />
            <Array as="points">
              <mxPoint x="260" y="240" />
              <mxPoint x="260" y="110" />
            </Array>
          </mxGeometry>
        </mxCell>
        <mxCell id="3ZesS7n-96SI2nkyZvq3-14" value="" style="shape=image;html=1;verticalAlign=top;verticalLabelPosition=bottom;labelBackgroundColor=#ffffff;imageAspect=0;aspect=fixed;image=https://cdn3.iconfinder.com/data/icons/energy-and-power-glyph-24-px/24/Electrical_plug_plug_plug_connector_plug_in_power_plug_2-128.png" vertex="1" parent="1">
          <mxGeometry x="150" y="211" width="58" height="58" as="geometry" />
        </mxCell>
      </root>
    </mxGraphModel>
  </diagram>
</mxfile>
